<svg version="1.2" baseProfile="tiny-ps" xmlns="http://www.w3.org/2000/svg" viewBox="0 0 1280 720" width="1280" height="720">
	<title>New Project</title>
	<style>
		tspan { white-space:pre }
	</style>
	<path id="R " fill="#131921" aria-label="R"  d="M610.62 360L581.32 360L581.32 345.35L588.65 345.35L588.65 272.11L581.32 272.11L581.32 257.46L635.52 257.46L647.24 269.18L647.24 304.34L642.85 308.73L647.24 313.13L647.24 345.35L654.57 345.35L654.57 360L625.27 360L625.27 345.35L632.59 345.35L632.59 316.05L603.3 316.05L603.3 345.35L610.62 345.35L610.62 360ZM603.3 272.11L603.3 301.41L632.59 301.41L632.59 272.11L603.3 272.11Z" />
	<path id="S " fill="#131921" aria-label="S"  d="M626.32 348.28L626.32 338.03L640.97 338.03L640.97 345.35L670.27 345.35L670.27 316.05L638.04 316.05L626.32 304.34L626.32 269.18L638.04 257.46L673.2 257.46L684.92 269.18L684.92 279.43L670.27 279.43L670.27 272.11L640.97 272.11L640.97 301.41L673.2 301.41L684.92 313.13L684.92 348.28L673.2 360L638.04 360L626.32 348.28Z" />
</svg>